<svg width="20" height="20" viewBox="0 0 20 20" fill="none" xmlns="http://www.w3.org/2000/svg">
<path d="M18.25 5.78223C18.25 4.49854 17.8006 3.50964 17.0801 2.83789C16.3535 2.16068 15.2905 1.75001 13.9736 1.75H6.02637C4.70857 1.75 3.64601 2.15907 2.91992 2.83496C2.19998 3.50521 1.75 4.49356 1.75 5.78223V14.2158C1.75 15.5052 2.19984 16.4944 2.91992 17.165C3.64603 17.8412 4.7087 18.25 6.02637 18.25H13.9736C15.2913 18.25 16.354 17.8411 17.0801 17.165C17.8002 16.4945 18.25 15.5056 18.25 14.2168V5.78223ZM19.75 14.2168C19.75 15.876 19.1592 17.2787 18.1025 18.2627C17.0518 19.2411 15.6011 19.75 13.9736 19.75H6.02637C4.39888 19.75 2.94824 19.2413 1.89746 18.2627C0.840705 17.2785 0.25 15.8755 0.25 14.2158V5.78223C0.25 4.12288 0.840606 2.72013 1.89746 1.73633C2.94826 0.758174 4.39899 0.250003 6.02637 0.25H13.9736C15.6019 0.250007 17.0522 0.761228 18.1025 1.74023C19.1587 2.72472 19.75 4.12676 19.75 5.78223V14.2168Z" fill="#0E121B"/>
<path d="M12.4696 11.4697C12.7625 11.177 13.2373 11.1769 13.5301 11.4697C13.8229 11.7627 13.823 12.2375 13.5301 12.5303L10.5282 15.5303C10.3875 15.6709 10.1968 15.75 9.99791 15.75C9.79904 15.7499 9.60824 15.6709 9.46764 15.5303L6.46959 12.5303C6.17684 12.2373 6.17677 11.7625 6.46959 11.4697C6.76252 11.177 7.23732 11.1769 7.53014 11.4697L9.99791 13.9395L12.4696 11.4697Z" fill="#0E121B"/>
<path d="M9.24805 15V8C9.24805 7.58579 9.58383 7.25 9.99805 7.25C10.4123 7.25 10.748 7.58579 10.748 8V15C10.748 15.4142 10.4123 15.75 9.99805 15.75C9.58383 15.75 9.24805 15.4142 9.24805 15Z" fill="#0E121B"/>
<path d="M18.9336 4.25C19.3478 4.25 19.6836 4.58579 19.6836 5C19.6836 5.41421 19.3478 5.75 18.9336 5.75H1.05859C0.64438 5.75 0.308594 5.41421 0.308594 5C0.308594 4.58579 0.64438 4.25 1.05859 4.25H18.9336Z" fill="#0E121B"/>
</svg>
