<svg width="14" height="14" viewBox="0 0 14 14" fill="none" xmlns="http://www.w3.org/2000/svg">
<path d="M0.46967 0.469723C0.762563 0.17683 1.23732 0.17683 1.53022 0.469723L13.5302 12.4697C13.8231 12.7626 13.8231 13.2374 13.5302 13.5303C13.2373 13.8232 12.7626 13.8232 12.4697 13.5303L0.46967 1.53027C0.176777 1.23738 0.176777 0.762617 0.46967 0.469723Z" fill="#0E121B"/>
<path d="M12.4697 0.469723C12.7626 0.17683 13.2373 0.17683 13.5302 0.469723C13.8231 0.762616 13.8231 1.23738 13.5302 1.53027L1.53022 13.5303C1.23732 13.8232 0.762563 13.8232 0.46967 13.5303C0.176777 13.2374 0.176777 12.7626 0.46967 12.4697L12.4697 0.469723Z" fill="#0E121B"/>
</svg>
