<svg width="18" height="20" viewBox="0 0 18 20" fill="none" xmlns="http://www.w3.org/2000/svg">
<path d="M16.0293 5.13281C16.0291 4.73566 15.7067 4.41406 15.3096 4.41406H12.6699C12.3769 4.41394 12.1105 4.24295 11.9883 3.97656L11.1699 2.19141C11.0465 1.92251 10.7781 1.75011 10.4824 1.75H7.29688C7.00092 1.75003 6.73168 1.92244 6.6084 2.19141L5.79102 3.97656L5.1084 3.66309V3.66406L5.79102 3.97656C5.66881 4.2431 5.40162 4.41406 5.1084 4.41406H2.46973C2.07252 4.41406 1.75021 4.73567 1.75 5.13281V6.22168C1.75015 6.3622 1.86433 6.47559 2.00488 6.47559H15.7744C15.9149 6.47559 16.0291 6.36223 16.0293 6.22168V5.13281ZM17.5293 6.22168C17.5291 7.1906 16.7434 7.97559 15.7744 7.97559H2.00488C1.0359 7.97559 0.250152 7.19062 0.25 6.22168V5.13281C0.250209 3.90723 1.2441 2.91406 2.46973 2.91406H4.62695L5.24512 1.56641C5.61281 0.76422 6.4145 0.250029 7.29688 0.25H10.4824C11.3648 0.250106 12.1664 0.76444 12.5342 1.56641L13.1514 2.91406H15.3096C16.5352 2.91406 17.5291 3.90724 17.5293 5.13281V6.22168Z" fill="#0E121B"/>
<path d="M1.79004 15.9863V7.30078C1.79004 6.88657 2.12583 6.55078 2.54004 6.55078C2.95425 6.55078 3.29004 6.88657 3.29004 7.30078V15.9863C3.29004 17.2456 4.29571 18.25 5.5166 18.25H12.2637C13.4845 18.2499 14.4902 17.2455 14.4902 15.9863V7.30078C14.4902 6.88657 14.826 6.55078 15.2402 6.55078C15.6544 6.55088 15.9902 6.88663 15.9902 7.30078V15.9863C15.9902 18.0562 14.3305 19.7499 12.2637 19.75H5.5166C3.44968 19.75 1.79004 18.0563 1.79004 15.9863Z" fill="#0E121B"/>
<path d="M6.44922 15.3252V10.8164C6.44922 10.4022 6.78501 10.0664 7.19922 10.0664C7.61343 10.0664 7.94922 10.4022 7.94922 10.8164V15.3252C7.94901 15.7392 7.6133 16.0752 7.19922 16.0752C6.78513 16.0752 6.44943 15.7392 6.44922 15.3252ZM9.83008 15.3252V10.8164C9.83008 10.4022 10.1659 10.0664 10.5801 10.0664C10.9941 10.0666 11.3301 10.4023 11.3301 10.8164V15.3252C11.3299 15.739 10.994 16.0749 10.5801 16.0752C10.166 16.0752 9.83029 15.7392 9.83008 15.3252Z" fill="#0E121B"/>
</svg>
