<svg width="20" height="18" viewBox="0 0 20 18" fill="none" xmlns="http://www.w3.org/2000/svg">
<path d="M0 9.13953C7.24995e-05 7.20323 1.20038 5.18739 2.97461 3.68738C4.76857 2.17075 7.24882 1.08972 10 1.08972C12.2504 1.08972 14.3334 1.81075 16.0059 2.92566C16.3505 3.15542 16.4436 3.62105 16.2139 3.9657C15.9841 4.31031 15.5185 4.40346 15.1738 4.17371C13.7263 3.20872 11.9295 2.58972 10 2.58972C7.64119 2.58972 5.49689 3.51953 3.94336 4.83289C2.3703 6.16276 1.50008 7.79599 1.5 9.13953C1.5 10.7276 2.72561 12.724 4.83105 14.1024C5.17733 14.3293 5.27453 14.7941 5.04785 15.1405C4.82096 15.4871 4.35534 15.5842 4.00879 15.3573C1.65435 13.8157 0 11.4113 0 9.13953Z" fill="#0E121B"/>
<path d="M18.5098 9.1405C18.5098 8.20785 18.0823 7.11702 17.2608 6.07507C17.0043 5.74983 17.0606 5.27784 17.3858 5.02136C17.711 4.76492 18.183 4.82022 18.4395 5.14538C19.3999 6.36341 20.0098 7.77317 20.0098 9.1405C20.0097 11.0775 18.8068 13.094 17.0303 14.5936C15.234 16.1099 12.751 17.1903 10 17.1903C9.01914 17.1903 8.0628 17.0497 7.16995 16.8026C6.77089 16.692 6.53702 16.2789 6.64748 15.8798C6.75814 15.4808 7.17126 15.2468 7.57034 15.3573C8.33945 15.5701 9.16107 15.6903 10 15.6903C12.3589 15.6903 14.5064 14.7607 16.0625 13.4471C17.6383 12.117 18.5097 10.4834 18.5098 9.1405Z" fill="#0E121B"/>
<path d="M9.99612 6.72192C8.66452 6.72422 7.5879 7.80552 7.59085 9.13598V9.14086C7.58864 9.77677 7.84211 10.3869 8.29397 10.8342C8.58794 11.1257 8.59012 11.6005 8.29885 11.8948C8.00744 12.189 7.53264 12.191 7.23831 11.8997C6.50029 11.169 6.08712 10.173 6.09085 9.13501C6.08839 6.97781 7.83457 5.22583 9.99319 5.22192L9.99612 6.72192ZM9.99319 5.22192C11.0328 5.21948 12.0307 5.63151 12.7656 6.36645C13.0583 6.65923 13.0581 7.13413 12.7656 7.427C12.4728 7.71989 11.997 7.71989 11.7041 7.427C11.2512 6.97428 10.6361 6.72052 9.99612 6.72192L9.99319 5.22192Z" fill="#0E121B"/>
<path d="M12.3709 9.5653C12.4447 9.15777 12.8354 8.887 13.2429 8.96081C13.6504 9.03471 13.9212 9.42536 13.8474 9.83288C13.5578 11.432 12.3064 12.6849 10.7078 12.9784C10.3005 13.0531 9.90967 12.784 9.83472 12.3768C9.76001 11.9696 10.0291 11.5787 10.4363 11.5038C11.4214 11.3231 12.1925 10.55 12.3709 9.5653Z" fill="#0E121B"/>
<path d="M17.3621 0.719602C17.6551 0.426905 18.1299 0.426774 18.4227 0.719602C18.7153 1.01245 18.7153 1.48731 18.4227 1.78015L2.64828 17.5546C2.35544 17.8472 1.88058 17.8472 1.58774 17.5546C1.29491 17.2617 1.29504 16.7869 1.58774 16.494L17.3621 0.719602Z" fill="#0E121B"/>
</svg>
