<svg width="24" height="24" viewBox="0 0 24 24" fill="none" xmlns="http://www.w3.org/2000/svg">
<path d="M2 12.1395C2.00007 10.2032 3.20038 8.18739 4.97461 6.68738C6.76857 5.17075 9.24882 4.08972 12 4.08972C14.2504 4.08972 16.3334 4.81075 18.0059 5.92566C18.3505 6.15542 18.4436 6.62105 18.2139 6.9657C17.9841 7.31031 17.5185 7.40346 17.1738 7.17371C15.7263 6.20872 13.9295 5.58972 12 5.58972C9.64119 5.58972 7.49689 6.51953 5.94336 7.83289C4.3703 9.16276 3.50008 10.796 3.5 12.1395C3.5 13.7276 4.72561 15.724 6.83105 17.1024C7.17733 17.3293 7.27453 17.7941 7.04785 18.1405C6.82096 18.4871 6.35534 18.5842 6.00879 18.3573C3.65435 16.8157 2 14.4113 2 12.1395Z" fill="#0E121B"/>
<path d="M20.5098 12.1405C20.5098 11.2078 20.0823 10.117 19.2608 9.07507C19.0043 8.74983 19.0606 8.27784 19.3858 8.02136C19.711 7.76492 20.183 7.82022 20.4395 8.14538C21.3999 9.36341 22.0098 10.7732 22.0098 12.1405C22.0097 14.0775 20.8068 16.094 19.0303 17.5936C17.234 19.1099 14.751 20.1903 12 20.1903C11.0191 20.1903 10.0628 20.0497 9.16995 19.8026C8.77089 19.692 8.53702 19.2789 8.64748 18.8798C8.75814 18.4808 9.17126 18.2468 9.57034 18.3573C10.3394 18.5701 11.1611 18.6903 12 18.6903C14.3589 18.6903 16.5064 17.7607 18.0625 16.4471C19.6383 15.117 20.5097 13.4834 20.5098 12.1405Z" fill="#0E121B"/>
<path d="M11.9961 9.72192C10.6645 9.72422 9.5879 10.8055 9.59085 12.136V12.1409C9.58864 12.7768 9.84211 13.3869 10.294 13.8342C10.5879 14.1257 10.5901 14.6005 10.2989 14.8948C10.0074 15.189 9.53264 15.191 9.23831 14.8997C8.50029 14.169 8.08712 13.173 8.09085 12.135C8.08839 9.97781 9.83457 8.22583 11.9932 8.22192L11.9961 9.72192ZM11.9932 8.22192C13.0328 8.21948 14.0307 8.63151 14.7656 9.36645C15.0583 9.65923 15.0581 10.1341 14.7656 10.427C14.4728 10.7199 13.997 10.7199 13.7041 10.427C13.2512 9.97428 12.6361 9.72052 11.9961 9.72192L11.9932 8.22192Z" fill="#0E121B"/>
<path d="M14.3709 12.5653C14.4447 12.1578 14.8354 11.887 15.2429 11.9608C15.6504 12.0347 15.9212 12.4254 15.8474 12.8329C15.5578 14.432 14.3064 15.6849 12.7078 15.9784C12.3005 16.0531 11.9097 15.784 11.8347 15.3768C11.76 14.9696 12.0291 14.5787 12.4363 14.5038C13.4214 14.3231 14.1925 13.55 14.3709 12.5653Z" fill="#0E121B"/>
<path d="M19.3621 3.7196C19.6551 3.42691 20.1299 3.42677 20.4227 3.7196C20.7153 4.01245 20.7153 4.48731 20.4227 4.78015L4.64828 20.5546C4.35544 20.8472 3.88058 20.8472 3.58774 20.5546C3.29491 20.2617 3.29504 19.7869 3.58774 19.494L19.3621 3.7196Z" fill="#0E121B"/>
</svg>
