<svg width="20" height="20" viewBox="0 0 20 20" fill="none" xmlns="http://www.w3.org/2000/svg">
<path d="M18.25 10C18.25 5.44329 14.5567 1.75 10 1.75C5.44329 1.75 1.75 5.44329 1.75 10C1.75 14.5557 5.44335 18.25 10 18.25C14.5566 18.25 18.25 14.5557 18.25 10ZM19.75 10C19.75 15.3841 15.3852 19.75 10 19.75C4.61481 19.75 0.25 15.3841 0.25 10C0.25 4.61487 4.61487 0.25 10 0.25C15.3851 0.25 19.75 4.61487 19.75 10Z" fill="#0E121B"/>
<path d="M9.25586 13.6934V9.39355C9.25588 8.97936 9.59166 8.64355 10.0059 8.64355C10.42 8.64364 10.7558 8.97941 10.7559 9.39355V13.6934C10.7558 14.1074 10.4199 14.4433 10.0059 14.4434C9.5917 14.4434 9.25595 14.1075 9.25586 13.6934ZM9.25 6.35449V6.29102C9.25 5.8768 9.58579 5.54102 10 5.54102C10.4142 5.54102 10.75 5.8768 10.75 6.29102V6.35449C10.7499 6.7686 10.4141 7.10449 10 7.10449C9.58587 7.10449 9.25013 6.7686 9.25 6.35449Z" fill="#0E121B"/>
</svg>
