<svg width="18" height="22" viewBox="0 0 18 22" fill="none" xmlns="http://www.w3.org/2000/svg">
<path d="M12.5234 8.44795V6.30049C12.5233 4.28478 10.8887 2.65027 8.87305 2.6501H8.86914C6.85326 2.64131 5.21195 4.26784 5.20312 6.28487V8.44795C5.20304 8.94494 4.79974 9.34737 4.30273 9.34737C3.80573 9.34737 3.40243 8.94494 3.40234 8.44795V6.27705C3.41551 3.26729 5.86458 0.83913 8.87305 0.850296V0.849319L8.87402 0.850296H8.87598C11.8845 0.852048 14.3241 3.29167 14.3242 6.30049V8.44795C14.3241 8.94491 13.9208 9.34732 13.4238 9.34737C12.9268 9.34737 12.5235 8.94494 12.5234 8.44795Z" fill="#0E121B"/>
<path d="M15.5752 12.1686C15.5752 10.5708 14.2797 9.27699 12.6826 9.27699H5.04199C3.4449 9.277 2.1504 10.5708 2.15039 12.1686V16.4577C2.15042 18.0554 3.44492 19.3493 5.04199 19.3493H12.6826C14.2797 19.3493 15.5752 18.0554 15.5752 16.4577V12.1686ZM17.375 16.4577C17.375 19.0498 15.2735 21.15 12.6826 21.15H5.04199C2.45111 21.15 0.349639 19.0498 0.349609 16.4577V12.1686C0.349614 9.57639 2.4511 7.47622 5.04199 7.47621H12.6826C15.2735 7.47621 17.375 9.57639 17.375 12.1686V16.4577Z" fill="#0E121B"/>
<path d="M7.96191 15.4234V13.2027C7.96191 12.7056 8.36525 12.3023 8.8623 12.3023C9.35936 12.3023 9.7627 12.7056 9.7627 13.2027V15.4234C9.7627 15.9205 9.35936 16.3238 8.8623 16.3238C8.36525 16.3238 7.96191 15.9205 7.96191 15.4234Z" fill="#0E121B"/>
</svg>
