<svg width="20" height="20" viewBox="0 0 20 20" fill="none" xmlns="http://www.w3.org/2000/svg">
<path d="M15.4326 6.42773C15.7843 6.0766 16.3538 6.07715 16.7051 6.42871L19.6367 9.3623L19.6982 9.43066C19.9863 9.78401 19.9658 10.3053 19.6367 10.6348L16.7051 13.5693C16.3538 13.921 15.7843 13.9215 15.4326 13.5703C15.0809 13.2191 15.0804 12.6495 15.4316 12.2978L16.8291 10.8984H6.94531C6.44826 10.8984 6.04492 10.4951 6.04492 9.99804C6.04517 9.5012 6.44841 9.09863 6.94531 9.09863H16.8291L15.4316 7.70019C15.0806 7.34855 15.0811 6.77897 15.4326 6.42773Z" fill="#0E121B"/>
<path d="M11.6553 14.749V13.7344C11.6554 13.2374 12.0587 12.835 12.5557 12.835C13.0526 12.8351 13.455 13.2375 13.4551 13.7344V14.749C13.4551 16.7445 12.0211 18.4543 10.0547 18.7861L4.88184 19.8369C4.8722 19.8389 4.86224 19.8411 4.85254 19.8428L4.61914 19.875C2.22103 20.1417 0.0996094 18.2527 0.0996094 15.8057V4.19434C0.0996094 1.74728 2.22104 -0.141623 4.61914 0.125003L4.85254 0.157229L4.88184 0.163089L4.7041 1.03028L4.70215 1.04492L4.88184 0.163089L10.0547 1.21387C12.0211 1.54574 13.4551 3.25556 13.4551 5.25098V6.2666C13.455 6.76354 13.0526 7.16593 12.5557 7.16602C12.0587 7.16602 11.6553 6.7636 11.6553 6.2666V5.25098C11.6553 4.19751 10.9465 3.29321 9.95703 3.03223L9.75488 2.98926L9.72559 2.9834L4.55273 1.93262L4.29492 1.90332C3.01621 1.83403 1.90039 2.85976 1.90039 4.19434V15.8057C1.90039 17.2292 3.17018 18.3008 4.55273 18.0674L9.72559 17.0166L9.9043 17.8984L9.90234 17.8838L9.72559 17.0166C9.73524 17.0146 9.74516 17.0124 9.75488 17.0107C10.8483 16.8262 11.6553 15.8728 11.6553 14.749Z" fill="#0E121B"/>
</svg>
