<svg width="20" height="20" viewBox="0 0 20 20" fill="none" xmlns="http://www.w3.org/2000/svg">
<path d="M9.30469 18.9999V17.6279C9.30478 17.2138 9.64058 16.8779 10.0547 16.8779C10.4688 16.8779 10.8046 17.2137 10.8047 17.6279V18.9999C10.8047 19.4142 10.4689 19.7499 10.0547 19.7499C9.64053 19.7499 9.30469 19.4141 9.30469 18.9999ZM4.13086 14.8632C4.42374 14.5705 4.89856 14.5705 5.19141 14.8632C5.48425 15.1561 5.48414 15.6309 5.19141 15.9238L4.22168 16.8945C3.92892 17.1872 3.45406 17.187 3.16113 16.8945C2.86823 16.6016 2.86825 16.1268 3.16113 15.8339L4.13086 14.8632ZM14.918 14.8632C15.2108 14.5704 15.6856 14.5706 15.9785 14.8632L16.9492 15.8339C17.2417 16.1268 17.2419 16.6017 16.9492 16.8945C16.6563 17.1873 16.1806 17.1874 15.8877 16.8945L14.918 15.9238C14.6253 15.6309 14.6252 15.156 14.918 14.8632ZM2.42676 9.24994C2.84086 9.25003 3.1767 9.58583 3.17676 9.99994C3.17676 10.4141 2.84089 10.7498 2.42676 10.7499H1.05469C0.640474 10.7499 0.304688 10.4142 0.304688 9.99994C0.304742 9.58577 0.640507 9.24994 1.05469 9.24994H2.42676ZM19.0547 9.24994C19.4689 9.24994 19.8046 9.58577 19.8047 9.99994C19.8047 10.4142 19.4689 10.7499 19.0547 10.7499H17.6826C17.2685 10.7498 16.9326 10.4141 16.9326 9.99994C16.9327 9.58583 17.2685 9.25004 17.6826 9.24994H19.0547ZM3.16113 3.10638C3.45403 2.81349 3.92879 2.81349 4.22168 3.10638L5.19141 4.07611C5.48421 4.36901 5.48427 4.84379 5.19141 5.13666C4.89854 5.42952 4.42376 5.42947 4.13086 5.13666L3.16113 4.16693C2.86824 3.87404 2.86824 3.39928 3.16113 3.10638ZM15.8877 3.10541C16.1806 2.8125 16.6563 2.81252 16.9492 3.10541C17.2418 3.39823 17.2418 3.8731 16.9492 4.16595L15.9785 5.13568C15.6857 5.42854 15.2109 5.42941 14.918 5.13666C14.6251 4.84378 14.6251 4.36804 14.918 4.07513L15.8877 3.10541ZM9.30469 2.37201V0.999939C9.30469 0.585762 9.64053 0.249999 10.0547 0.249939C10.4689 0.249939 10.8047 0.585725 10.8047 0.999939V2.37201C10.8046 2.78614 10.4688 3.12201 10.0547 3.12201C9.64058 3.12195 9.30478 2.78611 9.30469 2.37201Z" fill="#0E121B"/>
<path d="M13.5 9.99994C13.4999 8.09745 11.9579 6.55463 10.0547 6.55463C8.1515 6.55474 6.60948 8.09751 6.60938 9.99994C6.60938 11.9035 8.15154 13.4461 10.0547 13.4462C11.9579 13.4462 13.5 11.9035 13.5 9.99994ZM15 9.99994C15 12.7315 12.7867 14.9462 10.0547 14.9462C7.32269 14.9461 5.10938 12.7315 5.10938 9.99994C5.10948 7.26931 7.32285 5.05474 10.0547 5.05463C12.7865 5.05463 14.9999 7.26923 15 9.99994Z" fill="#0E121B"/>
</svg>
