<svg width="20" height="20" viewBox="0 0 20 20" fill="none" xmlns="http://www.w3.org/2000/svg">
<path d="M8.46786 0.108395C10.0739 0.109628 11.464 0.697554 12.5929 1.82422C14.6384 3.86583 16.682 5.90944 18.7227 7.95508L18.8634 8.10351C20.2746 9.66051 20.254 11.9827 18.7462 13.5039C17.0094 15.2572 15.2638 17.0018 13.5118 18.7383C11.9427 20.2934 9.51948 20.2662 7.96395 18.7148C5.90053 16.6572 3.83488 14.5975 1.7784 12.5293C0.842551 11.5877 0.276665 10.4291 0.152426 9.083L0.126059 8.61621C0.0761357 7.30476 0.114709 4.59213 0.116293 3.96386C0.120483 2.11669 1.50129 0.475898 3.31942 0.163083V0.164059C3.42766 0.145462 3.57754 0.138542 3.67782 0.134763C3.80789 0.129865 3.974 0.126243 4.16317 0.123044C4.54278 0.116625 5.0334 0.112542 5.55477 0.110349C6.59855 0.105958 7.77987 0.107911 8.46786 0.108395ZM3.62411 1.9375C2.67155 2.10147 1.91812 2.99274 1.9161 3.96875L1.90047 6.43652C1.8988 7.20713 1.90234 7.97893 1.92098 8.49511L1.94539 8.91699L1.99032 9.25293C2.12689 10.0213 2.48387 10.6854 3.05575 11.2607C5.10894 13.3256 7.17069 15.3824 9.23446 17.4404C10.0997 18.3035 11.3898 18.3078 12.2452 17.46C13.9937 15.7269 15.7352 13.9855 17.4679 12.2363C18.3165 11.38 18.3111 10.0907 17.4483 9.22656C15.4087 7.18199 13.366 5.13936 11.3214 3.09863C10.5239 2.30279 9.58792 1.90901 8.4659 1.9082C7.77512 1.90771 6.60053 1.90579 5.56258 1.91015C5.04324 1.91234 4.56154 1.91662 4.19344 1.92285C4.00889 1.92597 3.85707 1.92937 3.7452 1.93359C3.6049 1.93888 3.58931 1.9439 3.62606 1.9375H3.62411Z" fill="#0E121B"/>
<path d="M6.33793 3.7959C7.63201 3.80027 8.67565 4.8165 8.79594 6.06641L8.80668 6.31934C8.80052 7.69358 7.66254 8.80086 6.29594 8.79785C4.93063 8.79482 3.79521 7.66751 3.80277 6.29688V6.2959C3.81184 4.89099 4.93613 3.79082 6.33793 3.7959ZM6.33207 5.59571C5.9133 5.59392 5.60616 5.90339 5.60355 6.30762C5.60203 6.67034 5.92005 6.99718 6.29984 6.99805C6.69029 6.99892 7.00509 6.67682 7.00687 6.31153C7.00866 5.90546 6.68058 5.59704 6.33305 5.59571H6.33207Z" fill="#0E121B"/>
</svg>
